<svg id="Lamp" xmlns="http://www.w3.org/2000/svg" viewBox="0 0 238.22 467.74"><defs><style>.cls-1{fill:#999;}.cls-2{fill:#8888a8;}.cls-3{fill:#5e5e72;}</style></defs><title>Lamp</title><polygon class="cls-1" points="125.68 85.01 186.06 214.39 197.51 194.26 132.21 57.82 125.68 85.01"/><polygon class="cls-1" points="116.6 399.56 188.89 241.01 203.72 245.94 133.85 409.42 116.6 399.56"/><path class="cls-2" d="M1459.18,772.9l81.32,87.41S1675.11,716.73,1630,684.7,1459.18,772.9,1459.18,772.9Z" transform="translate(-1459.18 -679.27)"/><circle class="cls-2" cx="203.72" cy="228.76" r="34.5"/><circle class="cls-3" cx="203.72" cy="228.76" r="17.18"/><path class="cls-2" d="M1625.92,1126.48c0,20.54-121.6,22.8-121.6,0,0-30.4,27.22-55,60.8-55S1625.92,1096.08,1625.92,1126.48Z" transform="translate(-1459.18 -679.27)"/><rect class="cls-3" x="1501.26" y="1118.37" width="2.75" height="7.39" transform="translate(-1818.9 222.38) rotate(-30)"/><rect class="cls-2" x="21.3" y="444.74" width="176.21" height="23"/><circle class="cls-3" cx="105.94" cy="433.31" r="25.7"/><circle class="cls-3" cx="39.97" cy="436.76" r="5.45"/></svg>